<?xml version="1.0" encoding="UTF-8"?><svg id="Layer_2" xmlns="http://www.w3.org/2000/svg" xmlns:xlink="http://www.w3.org/1999/xlink" viewBox="0 0 63.83 63.83"><defs><style>.cls-1,.cls-2{fill:none;}.cls-3{fill:#fff;}.cls-4{fill:#ffd21f;}.cls-5{fill:#d1212d;}.cls-6{fill:#403408;}.cls-2{clip-path:url(#clippath);}</style><clipPath id="clippath"><path class="cls-1" d="m16.03,36.67c-.69,0-1.17.7-.91,1.34,1.36,3.33,5.91,11.7,17.2,11.7s15.94-8.43,17.34-11.79c.27-.64-.21-1.35-.91-1.35l-32.73.09Z"/></clipPath></defs><g id="BACKGROUND"><g id="_800x800_px"><path class="cls-4" d="m63.83,31.91c0,17.63-14.29,31.91-31.92,31.91S0,49.54,0,31.91,14.29,0,31.91,0s31.92,14.29,31.92,31.91Z"/><path class="cls-6" d="m17.33,22.18h.12c1.25,0,2.26,1.01,2.26,2.26v6.52c0,.51-.41.92-.92.92h-2.79c-.51,0-.92-.41-.92-.92v-6.52c0-1.25,1.01-2.26,2.26-2.26Z"/><path class="cls-6" d="m46.39,22.18h.12c1.25,0,2.26,1.01,2.26,2.26v6.52c0,.51-.41.92-.92.92h-2.79c-.51,0-.92-.41-.92-.92v-6.52c0-1.25,1.01-2.26,2.26-2.26Z"/><path class="cls-6" d="m16.03,36.67c-.69,0-1.17.7-.91,1.34,1.36,3.33,5.91,11.7,17.2,11.7s15.94-8.43,17.34-11.79c.27-.64-.21-1.35-.91-1.35l-32.73.09Z"/><g class="cls-2"><path class="cls-3" d="m17.49,36.29c-.63,0-1.06.19-.83.36,1.24.89,5.39,3.15,15.67,3.15s14.52-2.27,15.8-3.17c.25-.17-.19-.36-.83-.36l-29.81.03Z"/><ellipse class="cls-5" cx="32.15" cy="52.36" rx="12.29" ry="6.67"/></g><path class="cls-6" d="m13.83,19.08c-.14,0-.28-.03-.41-.1-.46-.23-.65-.78-.42-1.24.05-.1,1.25-2.48,3.53-3.24,1.23-.41,2.52-.28,3.83.39.46.23.64.79.41,1.25-.23.46-.79.64-1.25.41-.86-.44-1.65-.53-2.41-.28-1.54.51-2.45,2.28-2.46,2.3-.16.33-.49.52-.83.52Z"/><path class="cls-6" d="m50,19.03c-.34,0-.67-.19-.83-.52,0-.01-.9-1.77-2.43-2.26-.75-.24-1.54-.14-2.4.3-.45.24-1.01.06-1.25-.4-.24-.45-.06-1.01.4-1.25,1.31-.68,2.6-.82,3.84-.42,2.27.74,3.46,3.1,3.51,3.2.23.46.04,1.02-.42,1.24-.13.07-.27.1-.41.1Z"/></g></g></svg>