<?xml version="1.0" encoding="UTF-8"?><svg id="Layer_2" xmlns="http://www.w3.org/2000/svg" viewBox="0 0 63.83 63.83"><defs><style>.cls-1{fill:#ffd21f;}.cls-2{fill:#403408;}</style></defs><g id="BACKGROUND"><g id="_800x800_px"><path class="cls-1" d="m63.83,31.91c0,17.63-14.29,31.91-31.92,31.91S0,49.54,0,31.91,14.29,0,31.91,0s31.92,14.29,31.92,31.91Z"/><path class="cls-2" d="m17.39,33.88h0c-1.28,0-2.32-1.04-2.32-2.32v-5.56c0-1.28,1.04-2.32,2.32-2.32h0c1.28,0,2.32,1.04,2.32,2.32v5.56c0,1.28-1.04,2.32-2.32,2.32Z"/><path class="cls-2" d="m46.44,33.88h0c-1.28,0-2.32-1.04-2.32-2.32v-5.56c0-1.28,1.04-2.32,2.32-2.32h0c1.28,0,2.32,1.04,2.32,2.32v5.56c0,1.28-1.04,2.32-2.32,2.32Z"/><path class="cls-2" d="m50.19,42.42H13.64c-.77,0-1.39-.62-1.39-1.39s.62-1.39,1.39-1.39h36.55c.77,0,1.39.62,1.39,1.39s-.62,1.39-1.39,1.39Z"/></g></g></svg>