<?xml version="1.0" encoding="UTF-8"?><svg id="Layer_2" xmlns="http://www.w3.org/2000/svg" viewBox="0 0 63.83 63.83"><defs><style>.cls-1{fill:#ffd21f;}.cls-2{fill:#2fa7bf;}.cls-3{fill:#403408;}</style></defs><g id="BACKGROUND"><g id="_800x800_px"><path class="cls-1" d="m63.83,31.91c0,17.63-14.29,31.91-31.92,31.91S0,49.54,0,31.91,14.29,0,31.91,0s31.92,14.29,31.92,31.91Z"/><path class="cls-2" d="m55.45,44.47c0,2.46-2,4.46-4.46,4.46s-4.46-2-4.46-4.46,4.46-10.87,4.46-10.87c0,0,4.46,8.41,4.46,10.87Z"/><path class="cls-3" d="m46.44,30.57c-1.65,0-3.06-.56-4.09-1.61-1.84-1.88-1.84-4.65-1.84-4.95.02-.9.76-1.6,1.65-1.59.9.02,1.61.76,1.59,1.65,0,.46.16,1.86.92,2.63.42.42,1,.62,1.77.62s1.35-.21,1.78-.64c.92-.93.95-2.65.95-2.67-.01-.9.71-1.63,1.6-1.64.89-.02,1.63.71,1.64,1.6,0,.31-.02,3.1-1.88,4.99-1.04,1.05-2.45,1.6-4.09,1.6Z"/><path class="cls-3" d="m17.35,30.57c-1.65,0-3.06-.56-4.09-1.61-1.84-1.88-1.84-4.65-1.84-4.95.02-.9.75-1.61,1.65-1.59.9.02,1.61.76,1.59,1.65,0,.46.16,1.86.92,2.63.42.42,1,.62,1.77.62s1.35-.21,1.78-.64c.92-.93.95-2.65.95-2.67-.01-.9.71-1.63,1.6-1.64.9,0,1.63.71,1.64,1.6,0,.31-.02,3.1-1.88,4.99-1.04,1.05-2.45,1.6-4.09,1.6Z"/><path class="cls-3" d="m20.48,44.96c-.15,0-.3-.02-.45-.06-.86-.25-1.36-1.14-1.11-2,.95-3.33,4.91-9.64,13.05-9.64s12.04,6.27,12.95,9.59c.24.86-.27,1.76-1.13,2-.87.24-1.76-.27-2-1.13-.08-.29-2.14-7.2-9.82-7.2s-9.84,6.99-9.93,7.29c-.21.71-.86,1.17-1.56,1.17Z"/></g></g></svg>